<svg width="391" height="391" viewBox="0 0 391 391" fill="none" xmlns="http://www.w3.org/2000/svg">
<g opacity="0.2">
<path d="M177.268 225.352C177.542 225.43 177.828 225.535 178.154 225.613L179.182 225.795C179.912 225.925 180.706 226.095 181.591 226.225L184.469 226.433C185.002 226.466 185.537 226.466 186.07 226.433H187.776C188.369 226.399 188.96 226.334 189.546 226.238L191.408 225.99C192.046 225.886 192.71 225.704 193.322 225.561L194.312 225.326C194.649 225.266 194.981 225.174 195.301 225.053C196.668 224.629 198.008 224.12 199.312 223.53C202.129 222.267 204.758 220.619 207.124 218.634L208.946 217.006C209.558 216.46 210.079 215.809 210.665 215.21C210.951 214.91 211.225 214.598 211.511 214.285C211.798 213.973 212.019 213.621 212.28 213.283C212.774 212.606 213.321 211.981 213.777 211.239L215.079 209.038L215.404 208.478L215.678 207.892L216.251 206.695L216.811 205.51C217.006 205.106 217.097 204.716 217.253 204.325L218.113 201.903C219.022 198.577 219.486 195.144 219.493 191.695C219.493 190.849 219.402 190.003 219.349 189.157C219.349 188.74 219.349 188.323 219.245 187.854C219.141 187.386 219.102 187.021 219.024 186.618C218.868 185.797 218.777 184.964 218.555 184.17C218.334 183.376 218.113 182.594 217.904 181.813C216.975 178.85 215.634 176.031 213.92 173.441C213.131 172.234 212.261 171.081 211.316 169.991C211.111 169.717 210.884 169.461 210.639 169.223L209.936 168.494C209.467 168.025 209.024 167.53 208.556 167.1L207.124 165.877C206.684 165.474 206.218 165.1 205.73 164.757L204.324 163.793C203.907 163.482 203.472 163.195 203.022 162.934C202.124 162.439 201.278 161.971 200.418 161.554C199.559 161.137 198.843 160.89 198.153 160.603L197.189 160.2L196.317 159.939L194.924 159.536L193.765 159.197L194.885 159.666L196.187 160.213L197.033 160.564L197.944 161.046C198.595 161.385 199.312 161.749 200.067 162.166L202.423 163.715C202.881 163.993 203.316 164.307 203.725 164.653L205.027 165.681C205.483 166.042 205.918 166.429 206.329 166.84L207.631 168.142C208.061 168.585 208.439 169.08 208.868 169.561L209.493 170.29C209.715 170.532 209.92 170.788 210.105 171.059C212.691 174.491 214.632 178.364 215.834 182.49C216.673 185.492 217.11 188.592 217.136 191.708C217.102 194.923 216.643 198.119 215.769 201.213L214.962 203.518C214.842 203.917 214.699 204.308 214.532 204.689L214.037 205.757L213.542 206.825L213.295 207.372L212.996 207.879L211.772 209.937C210.065 212.547 208.02 214.919 205.691 216.993L205.275 217.384L204.832 217.723L203.934 218.413C203.368 218.885 202.772 219.32 202.15 219.715L200.314 220.886C199.702 221.251 199.012 221.551 198.439 221.876C197.224 222.495 195.971 223.038 194.689 223.504C194.39 223.633 194.081 223.737 193.765 223.816L192.841 224.102C192.229 224.272 191.63 224.48 191.031 224.623L189.26 224.962C188.703 225.094 188.137 225.19 187.567 225.248L185.927 225.417C185.393 225.417 184.885 225.561 184.377 225.548H181.552C180.693 225.548 179.886 225.404 179.156 225.339L178.128 225.248C177.815 225.248 177.516 225.144 177.242 225.092L175.823 224.845L174.638 224.623L175.784 224.962L177.268 225.352Z" fill="white"/>
<path d="M218.126 221.589L216.889 222.604L215.808 223.516L214.806 224.193C213.595 225 212.918 225.495 212.918 225.495C212.918 225.495 213.647 225.117 214.936 224.401L215.991 223.802L217.163 222.982C217.592 222.695 218.035 222.383 218.465 222.044C218.712 221.885 218.943 221.702 219.155 221.497L219.858 220.885L221.329 219.583L222.761 218.034L223.503 217.214C223.751 216.927 223.959 216.615 224.193 216.315L225.586 214.441C226.476 213.07 227.268 211.639 227.956 210.157C228.67 208.623 229.283 207.044 229.792 205.431C230.233 203.8 230.572 202.143 230.808 200.47C231.018 198.851 231.127 197.22 231.133 195.587C231.133 194.793 231.029 194.025 230.977 193.257C230.977 192.879 230.977 192.502 230.886 192.124C230.795 191.747 230.755 191.395 230.703 191.043C230.573 190.327 230.456 189.624 230.339 188.96C230.222 188.296 229.974 187.658 229.805 187.059C229.714 186.747 229.636 186.447 229.545 186.161C229.475 185.877 229.384 185.598 229.271 185.328L228.646 183.804L228.099 182.502L227.54 181.435C226.849 180.133 226.433 179.417 226.433 179.417C226.433 179.417 226.745 180.198 227.318 181.539C227.461 181.877 227.631 182.242 227.8 182.645L228.23 183.947L228.711 185.471C228.894 186.005 228.972 186.604 229.128 187.203C229.284 187.801 229.401 188.439 229.545 189.09C229.688 189.741 229.714 190.392 229.792 191.135C229.792 191.486 229.883 191.838 229.935 192.202C229.987 192.567 229.935 192.931 229.935 193.296C229.935 194.034 229.961 194.789 230.013 195.561C229.963 197.143 229.824 198.721 229.597 200.288C229.163 203.526 228.237 206.678 226.849 209.636C226.192 211.072 225.457 212.472 224.649 213.829L223.347 215.69C223.139 215.99 222.943 216.302 222.722 216.589L222.032 217.409L220.73 218.998L219.428 220.3C218.972 220.781 218.569 221.237 218.126 221.589Z" fill="white"/>
<path d="M358.144 185.875C356.696 185.888 355.273 186.245 353.99 186.917L341.296 174.209C337.914 150.365 328.731 127.716 314.553 108.249L319.279 99.1354C321.055 99.2617 322.83 98.8647 324.383 97.9935C325.937 97.1222 327.201 95.815 328.019 94.2332C328.838 92.6514 329.175 90.8645 328.989 89.0932C328.804 87.3219 328.103 85.6438 326.974 84.2664C326.616 83.8239 326.22 83.4143 325.789 83.0425C324.871 82.2653 323.808 81.6775 322.662 81.3129C321.516 80.9484 320.309 80.8143 319.111 80.9184C317.913 81.0224 316.747 81.3627 315.681 81.9194C314.614 82.4762 313.669 83.2384 312.899 84.1623L312.834 84.2664H292.692C271.061 65.1016 244.276 52.7143 215.665 48.6434L202.957 35.9488C203.637 34.6695 203.994 33.2439 203.999 31.7954C203.987 30.4236 203.667 29.0721 203.06 27.8416C202.454 26.6111 201.577 25.5334 200.496 24.6888C199.415 23.8443 198.157 23.2546 196.817 22.9639C195.476 22.6731 194.087 22.6888 192.753 23.0097C191.42 23.3305 190.175 23.9483 189.114 24.817C188.052 25.6857 187.2 26.7829 186.621 28.0267C186.043 29.2706 185.752 30.629 185.772 32.0007C185.791 33.3724 186.12 34.7219 186.734 35.9488L174.027 48.6434C145.425 52.693 118.645 65.0578 97.0127 84.2013H76.8836C76.5306 83.759 76.1384 83.3493 75.7118 82.9774C74.7935 82.1982 73.73 81.6087 72.5825 81.243C71.4351 80.8773 70.2266 80.7426 69.0268 80.8467C67.827 80.9508 66.6598 81.2917 65.5925 81.8496C64.5252 82.4075 63.5791 83.1714 62.8088 84.0972C62.7901 84.1336 62.7683 84.1685 62.7437 84.2013C61.6114 85.5776 60.9074 87.2557 60.7189 89.0279C60.5304 90.8001 60.8656 92.5888 61.683 94.1725C62.5005 95.7562 63.7644 97.0654 65.3183 97.9383C66.8721 98.8111 68.6478 99.2092 70.4256 99.0833L75.1519 108.197C60.961 127.678 51.773 150.346 48.3956 174.209L35.701 186.917C34.4741 186.303 33.1246 185.974 31.7529 185.955C30.3812 185.935 29.0228 186.226 27.7789 186.804C26.5351 187.383 25.4379 188.235 24.5692 189.296C23.7005 190.358 23.0827 191.602 22.7619 192.936C22.441 194.27 22.4253 195.659 22.7161 196.999C23.0068 198.34 23.5965 199.598 24.441 200.679C25.2856 201.76 26.3633 202.636 27.5938 203.243C28.8243 203.849 30.1758 204.17 31.5476 204.182C32.9961 204.177 34.4217 203.819 35.701 203.14L48.3956 215.848C51.7773 239.692 60.9605 262.341 75.1389 281.807L68.6288 294.307C67.1659 294.509 65.7739 295.064 64.5729 295.923C63.3718 296.783 62.3976 297.921 61.7342 299.241C61.0707 300.56 60.7378 302.021 60.7641 303.498C60.7905 304.974 61.1753 306.422 61.8854 307.717C62.5956 309.012 63.6097 310.115 64.8407 310.931C66.0716 311.747 67.4825 312.252 68.9517 312.402C70.421 312.552 71.9047 312.343 73.275 311.792C74.6454 311.241 75.8615 310.366 76.8185 309.241C77.6463 308.254 78.2504 307.099 78.5892 305.856H96.9996C118.627 325.026 145.413 337.414 174.027 341.479L186.734 354.173C186.12 355.4 185.791 356.75 185.772 358.121C185.752 359.493 186.043 360.851 186.621 362.095C187.2 363.339 188.052 364.436 189.114 365.305C190.175 366.174 191.42 366.792 192.753 367.112C194.087 367.433 195.476 367.449 196.817 367.158C198.157 366.867 199.415 366.278 200.496 365.433C201.577 364.589 202.454 363.511 203.06 362.28C203.667 361.05 203.987 359.698 203.999 358.327C203.992 356.878 203.635 355.453 202.957 354.173L215.665 341.479C244.278 337.414 271.064 325.026 292.692 305.856H312.808C313.162 306.301 313.559 306.711 313.993 307.079C314.911 307.857 315.973 308.444 317.119 308.809C318.266 309.174 319.473 309.308 320.671 309.204C321.869 309.1 323.035 308.759 324.101 308.203C325.167 307.646 326.112 306.884 326.883 305.96L326.948 305.856C328.077 304.478 328.777 302.8 328.963 301.029C329.149 299.258 328.812 297.471 327.993 295.889C327.175 294.307 325.911 293 324.357 292.129C322.804 291.257 321.029 290.86 319.253 290.987L314.526 281.873C328.705 262.406 337.888 239.757 341.27 215.913L353.964 203.205C355.244 203.882 356.67 204.24 358.118 204.247C360.545 204.247 362.873 203.282 364.59 201.566C366.307 199.849 367.271 197.521 367.271 195.094C367.271 192.666 366.307 190.338 364.59 188.621C362.873 186.905 360.545 185.94 358.118 185.94L358.144 185.875ZM47.4972 207.866L39.3596 199.742C40.2361 198.328 40.7004 196.698 40.7004 195.035C40.7004 193.372 40.2361 191.742 39.3596 190.328L47.4972 182.191C47.1326 186.422 46.9113 190.706 46.9113 195.028C46.9113 199.351 47.1326 203.635 47.4972 207.866ZM310.777 89.201C310.642 90.6661 310.865 92.1418 311.425 93.5022C311.985 94.8626 312.866 96.0672 313.993 97.0131C314.162 97.1563 314.357 97.2605 314.539 97.3907L311.206 103.901C307.155 98.7418 302.771 93.8532 298.082 89.2661L310.777 89.201ZM190.093 39.5424C191.507 40.4188 193.137 40.8831 194.8 40.8831C196.463 40.8831 198.093 40.4188 199.507 39.5424L207.631 47.6799C203.4 47.3154 199.129 47.094 194.794 47.094C190.458 47.094 186.187 47.3154 181.956 47.6799L190.093 39.5424ZM76.8185 95.8804C78.373 94.0182 79.1309 91.6183 78.9277 89.201H91.5963C86.9126 93.7853 82.537 98.6742 78.4981 103.836L75.1649 97.3256C75.767 96.9054 76.3214 96.4207 76.8185 95.8804V95.8804ZM78.6152 300.856C78.1172 299.096 77.101 297.526 75.6987 296.351C75.1344 295.884 74.5132 295.49 73.8499 295.179L78.485 286.234C82.5283 291.392 86.9082 296.276 91.5963 300.856H78.6152ZM199.546 350.515C198.132 349.638 196.502 349.174 194.839 349.174C193.176 349.174 191.546 349.638 190.132 350.515L182.008 342.429C186.239 342.794 190.523 343.028 194.846 343.028C199.168 343.028 203.452 342.794 207.684 342.429L199.546 350.515ZM297.457 130.384L256.288 89.201H270.948C283.108 97.9888 293.676 108.79 302.196 121.139L297.457 130.384ZM305.386 125.944C310.21 133.617 314.22 141.773 317.352 150.278L301.181 134.107L305.386 125.944ZM305.178 198.14C296.894 204.937 287.881 210.793 278.305 215.6L279.385 214.754C282.227 212.501 284.932 210.079 287.484 207.502C289.131 205.848 290.691 204.11 292.158 202.294C293.16 200.992 293.655 200.354 293.655 200.354C293.655 200.354 293.043 200.953 291.858 202.02C290.674 203.088 288.851 204.546 286.507 206.356C284.164 208.166 281.208 210.197 277.732 212.384C275.987 213.465 274.151 214.637 272.107 215.691C270.063 216.746 268.019 218.009 265.727 219.064L262.29 220.743C261.092 221.29 259.855 221.772 258.618 222.306L254.842 223.946L250.858 225.391L246.77 226.863L242.486 228.165L238.111 229.467L233.607 230.521L229.01 231.576C227.461 231.927 225.873 232.097 224.297 232.37L221.693 232.787C219.662 233.047 217.592 233.282 215.496 233.49C222.427 229.763 228.22 224.23 232.261 217.477C236.301 210.723 238.438 203.002 238.445 195.133C238.452 187.263 236.328 179.538 232.299 172.778C228.27 166.018 222.486 160.475 215.561 156.736C221.98 157.374 228.047 158.299 233.789 159.431L238.125 160.434L242.499 161.736L246.783 163.038L250.871 164.522L254.855 165.968L258.644 167.582C259.946 168.116 261.118 168.598 262.316 169.131L265.753 170.824C268.045 171.879 270.128 173.077 272.133 174.196C274.138 175.316 276.039 176.423 277.758 177.503C281.234 179.678 284.164 181.748 286.533 183.532C288.903 185.315 290.687 186.813 291.885 187.867C293.082 188.922 293.681 189.534 293.681 189.534C293.681 189.534 293.187 188.844 292.184 187.594C290.714 185.78 289.154 184.042 287.51 182.386C284.957 179.813 282.253 177.396 279.411 175.147V175.147C281.664 176.319 283.812 177.477 285.778 178.61C292.617 182.544 299.115 187.043 305.204 192.06L245.858 195.172L305.178 198.14ZM84.3571 192.034C92.3729 185.439 101.077 179.729 110.319 175.004V175.004C107.464 177.261 104.751 179.692 102.195 182.282C100.55 183.934 98.9939 185.673 97.5335 187.49C96.5179 188.792 96.0361 189.43 96.0361 189.43C96.0361 189.43 96.6351 188.831 97.8199 187.763C99.0047 186.696 100.828 185.237 103.184 183.428C105.541 181.618 108.483 179.587 111.96 177.399C113.704 176.332 115.527 175.16 117.571 174.092C119.616 173.024 121.673 171.788 123.951 170.733L127.402 169.04C128.586 168.507 129.836 168.012 131.073 167.491L134.849 165.863L138.846 164.418L142.935 162.947L147.218 161.645L151.58 160.343L156.098 159.288L157.582 158.95C162.851 157.96 168.393 157.175 174.209 156.593C167.265 160.317 161.46 165.853 157.411 172.613C153.362 179.373 151.22 187.103 151.213 194.983C151.207 202.863 153.335 210.597 157.373 217.363C161.41 224.13 167.206 229.676 174.144 233.412C171.722 233.164 169.352 232.891 167.022 232.565L165.407 232.318C163.819 232.045 162.23 231.862 160.694 231.524L156.098 230.469L151.58 229.415L147.218 228.113L142.935 226.876L138.846 225.391L134.849 223.946L131.073 222.332C129.771 221.798 128.586 221.316 127.402 220.782L123.951 219.09C121.673 218.035 119.59 216.837 117.571 215.73C115.553 214.624 113.665 213.491 111.96 212.41C108.483 210.236 105.541 208.166 103.184 206.382C100.828 204.598 99.0177 203.114 97.8199 202.059C96.622 201.005 96.0361 200.393 96.0361 200.393C96.0361 200.393 96.5179 201.083 97.5335 202.333C98.9939 204.15 100.55 205.888 102.195 207.541C104.747 210.113 107.452 212.531 110.293 214.78L111.348 215.613C108.744 214.311 106.231 212.931 103.952 211.616C97.069 207.656 90.5353 203.118 84.4222 198.049L141.463 195.054L84.3571 192.034ZM164.873 173.884C164.873 172.279 165.328 170.706 166.186 169.35C167.044 167.993 168.269 166.908 169.72 166.22C171.171 165.533 172.786 165.272 174.38 165.467C175.973 165.662 177.478 166.305 178.72 167.323C179.962 168.34 180.889 169.688 181.395 171.212C181.9 172.736 181.962 174.371 181.574 175.929C181.186 177.487 180.364 178.902 179.203 180.01C178.042 181.119 176.59 181.875 175.016 182.191C175.161 182.668 175.24 183.163 175.25 183.662C175.254 184.584 175.019 185.492 174.569 186.296C174.118 187.101 173.467 187.776 172.679 188.255C171.891 188.734 170.993 189.001 170.071 189.031C169.149 189.06 168.235 188.851 167.418 188.424C166.601 187.996 165.908 187.365 165.407 186.59C164.906 185.816 164.613 184.926 164.558 184.005C164.502 183.084 164.685 182.165 165.09 181.336C165.494 180.507 166.106 179.797 166.866 179.274C165.588 177.768 164.883 175.859 164.873 173.884V173.884ZM197.424 219.715C203.588 216.335 208.494 211.051 211.405 204.652C214.317 198.253 215.078 191.084 213.576 184.216C212.074 177.348 208.388 171.151 203.071 166.552C197.754 161.953 191.091 159.199 184.078 158.702C190.627 156.724 197.589 156.553 204.228 158.207C210.866 159.861 216.934 163.279 221.789 168.098C226.645 172.918 230.107 178.96 231.81 185.586C233.514 192.212 233.394 199.175 231.465 205.739C229.535 212.302 225.868 218.222 220.85 222.873C215.832 227.523 209.651 230.73 202.959 232.156C196.268 233.581 189.316 233.171 182.839 230.97C176.361 228.768 170.599 224.857 166.162 219.649C170.941 222.271 176.302 223.651 181.752 223.663C187.203 223.674 192.569 222.317 197.359 219.715H197.424ZM194.911 145.617C179.361 145.567 163.854 147.248 148.676 150.63L180.445 89.201H209.389L241.145 150.63C225.946 147.244 210.417 145.562 194.846 145.617H194.911ZM142.231 152.205C131.02 155.121 120.119 159.12 109.681 164.145L94.643 135.058L140.487 89.201H174.743L142.231 152.205ZM142.231 237.852L174.782 300.856H140.487L94.643 255.012L109.681 225.925C120.099 230.941 130.978 234.935 142.166 237.852H142.231ZM148.742 239.427C179.194 246.107 210.732 246.107 241.184 239.427L209.428 300.856H180.367L148.742 239.427ZM247.694 237.852C258.879 234.936 269.753 230.941 280.166 225.925L295.218 255.012L249.205 300.856H214.949L247.694 237.852ZM247.694 152.205L215.144 89.201H249.205L295.061 135.058L280.01 164.145C269.598 159.124 258.723 155.125 247.538 152.205H247.694ZM251.288 84.2013L239.57 72.4832C247.917 75.5631 255.927 79.4896 263.475 84.2013H251.288ZM244.218 84.2013H212.371L202.358 64.8404C211.451 65.3551 220.463 66.8302 229.245 69.2412L244.218 84.2013ZM206.746 84.2013H182.958L193.075 64.6712C193.661 64.6712 194.247 64.6712 194.846 64.6712C195.445 64.6712 196.031 64.6712 196.629 64.6712L206.746 84.2013ZM177.347 84.2013H145.486L160.447 69.2412C169.233 66.8292 178.249 65.3541 187.346 64.8404L177.347 84.2013ZM138.43 84.2013H126.204C133.747 79.4896 141.752 75.563 150.096 72.4832L138.43 84.2013ZM133.43 89.201L92.2213 130.384L87.4429 121.087C95.9608 108.737 106.529 97.9346 118.691 89.149L133.43 89.201ZM88.5366 134.107L72.3265 150.278C75.4634 141.775 79.4733 133.62 84.292 125.944L88.5366 134.107ZM90.9453 138.782L105.267 166.397C92.4341 172.904 80.6499 181.3 70.3084 191.305L69.8267 191.786C67.8086 193.818 66.819 195.028 66.819 195.028C66.819 195.028 67.8086 196.239 69.8267 198.27L70.3084 198.752C80.6291 208.756 92.3911 217.156 105.202 223.673L90.9192 251.288L69.0064 229.428C62.8265 206.911 62.8265 183.146 69.0064 160.629L90.9453 138.782ZM88.5366 255.963L84.3181 264.113C79.4943 256.44 75.4841 248.284 72.3526 239.779L88.5366 255.963ZM92.2473 259.673L133.43 300.856H118.743C106.583 292.068 96.015 281.266 87.495 268.918L92.2473 259.673ZM138.443 305.856L150.161 317.574C141.811 314.499 133.8 310.572 126.256 305.856H138.443ZM145.513 305.856H177.334L187.346 325.23C178.25 324.705 169.234 323.226 160.447 320.816L145.513 305.856ZM182.984 305.856H206.759L196.655 325.386C196.057 325.386 195.471 325.386 194.872 325.386C194.273 325.386 193.687 325.386 193.101 325.386L182.984 305.856ZM202.371 325.23L212.397 305.856H244.231L229.245 320.816C220.458 323.226 211.442 324.705 202.345 325.23H202.371ZM239.622 317.548L251.34 305.83H263.553C255.983 310.551 247.946 314.478 239.57 317.548H239.622ZM270.974 300.856H256.288L297.47 259.673L302.249 268.918C293.716 281.274 283.13 292.076 270.948 300.856H270.974ZM312.873 294.255C312.098 295.171 311.511 296.232 311.147 297.376C310.782 298.52 310.648 299.725 310.751 300.921H298.082C302.764 296.317 307.14 291.411 311.18 286.234L314.513 292.679C313.9 293.13 313.348 293.66 312.873 294.255V294.255ZM305.399 264.178L301.181 256.028L317.365 239.844C314.229 248.327 310.219 256.46 305.399 264.113V264.178ZM320.633 229.493L298.772 251.288L284.45 223.66C310.373 210.145 322.833 195.015 322.833 195.015C322.833 195.015 310.373 179.886 284.45 166.371L298.772 138.756L320.633 160.616C326.83 183.13 326.83 206.9 320.633 229.415V229.493ZM333.445 187.75C333.354 186.552 333.249 185.224 333.132 183.753C333.056 182.149 332.865 180.552 332.559 178.975C331.947 175.563 331.257 171.644 330.476 167.257C329.252 162.973 328.054 158.143 326.427 153.078L323.38 145.266C322.846 143.964 322.352 142.531 321.753 141.164C321.154 139.797 320.386 138.469 319.695 137.089C308.103 112.718 289.565 92.3183 266.412 78.4531C243.258 64.5879 216.523 57.8763 189.566 59.162C162.61 60.4476 136.634 69.6731 114.906 85.6788C93.1771 101.685 76.6647 123.756 67.444 149.12C66.6628 151.437 65.6212 153.677 65.0353 156.046C64.4494 158.416 63.7333 160.786 63.1864 163.129C61.7152 167.829 61.2855 172.569 60.4522 177.256L59.8923 180.784C59.7882 181.995 59.7491 183.232 59.671 184.456C59.5278 186.904 59.3846 189.352 59.2544 191.786L59.1502 193.609V194.521V194.976C59.1479 195.015 59.1479 195.055 59.1502 195.094V195.302L59.3064 198.856C59.4106 201.213 59.5148 203.57 59.6189 205.9C61.4382 230.002 69.5327 253.208 83.0981 273.212C96.6634 293.216 115.227 309.323 136.945 319.93L141.021 322.001C142.388 322.586 143.768 323.094 145.109 323.628L152.921 326.662C158.025 328.289 162.816 329.487 167.1 330.724L178.818 332.794C180.395 333.1 181.992 333.292 183.596 333.367L187.607 333.68L194.95 334.252L187.594 334.083L183.57 333.992C181.959 334.01 180.348 333.905 178.753 333.68L166.657 332.091C162.282 331.023 157.387 330.021 152.14 328.576L144.106 325.815C142.713 325.321 141.281 324.878 139.862 324.331L135.63 322.404C122.618 316.789 110.611 309.083 100.085 299.593C87.4373 288.436 76.8818 275.112 68.9153 260.246C59.9615 243.57 54.5284 225.232 52.9526 206.369C52.8094 203.921 52.6662 201.46 52.536 198.987L52.3277 195.302V194.221V193.31L52.4709 191.396L52.7834 184.066C52.8485 182.842 52.8745 181.618 52.9787 180.381L53.5125 176.579C54.3067 171.527 54.8145 166.319 56.2337 161.411C56.8587 158.937 57.5357 156.437 58.1346 153.95C58.7336 151.463 59.8142 149.067 60.6345 146.62C67.6011 126.801 78.9322 108.8 93.7903 93.9491C108.648 79.0977 126.654 67.7748 146.476 60.8172C165.567 54.0067 185.9 51.3824 206.095 53.1223C224.993 54.6851 243.368 60.1186 260.076 69.085C274.951 77.0551 288.288 87.6098 299.462 100.255C308.962 110.798 316.668 122.827 322.273 135.865C322.924 137.297 323.575 138.703 324.2 140.097C324.825 141.49 325.203 142.948 325.698 144.328C326.644 147.114 327.56 149.797 328.445 152.375C329.89 157.583 330.906 162.517 331.96 166.892C332.533 171.358 333.054 175.342 333.497 178.818C333.723 180.414 333.827 182.024 333.809 183.636C333.809 185.12 333.874 186.461 333.9 187.672C334.005 192.464 334.07 195.028 334.07 195.028C334.07 195.028 333.822 192.477 333.445 187.685V187.75ZM350.371 199.807L342.233 207.931C342.598 203.7 342.832 199.429 342.832 195.094C342.832 190.758 342.598 186.487 342.233 182.256L350.371 190.393C349.494 191.807 349.03 193.437 349.03 195.1C349.03 196.763 349.494 198.393 350.371 199.807V199.807Z" fill="white"/>
<path d="M375.616 190.458C374.709 190.455 373.821 190.722 373.065 191.225C372.31 191.728 371.72 192.443 371.372 193.281C371.023 194.119 370.931 195.042 371.108 195.932C371.284 196.822 371.721 197.64 372.363 198.282C373.004 198.924 373.822 199.36 374.712 199.537C375.603 199.713 376.525 199.621 377.363 199.273C378.201 198.924 378.917 198.335 379.42 197.579C379.922 196.824 380.189 195.936 380.187 195.028C380.187 193.816 379.705 192.654 378.848 191.797C377.991 190.94 376.828 190.458 375.616 190.458V190.458Z" fill="white"/>
<path d="M14.0873 190.458C13.1797 190.455 12.2919 190.722 11.5362 191.225C10.7805 191.728 10.1911 192.443 9.84257 193.281C9.49408 194.119 9.40222 195.042 9.57864 195.932C9.75507 196.822 10.1918 197.64 10.8336 198.282C11.4753 198.924 12.2931 199.36 13.1834 199.537C14.0736 199.713 14.9962 199.621 15.8342 199.273C16.6721 198.924 17.3878 198.335 17.8904 197.579C18.393 196.824 18.6599 195.936 18.6573 195.028C18.6539 193.817 18.1713 192.657 17.315 191.8C16.4587 190.944 15.2983 190.461 14.0873 190.458V190.458Z" fill="white"/>
<path d="M185.94 273.969C188.038 275.73 190.611 276.83 193.334 277.129C196.057 277.428 198.807 276.914 201.237 275.65C203.668 274.386 205.669 272.431 206.988 270.03C208.307 267.629 208.885 264.892 208.649 262.163C208.412 259.434 207.372 256.836 205.659 254.698C203.947 252.56 201.639 250.978 199.028 250.151C196.416 249.325 193.618 249.291 190.987 250.054C188.356 250.817 186.011 252.343 184.247 254.439C183.07 255.83 182.18 257.44 181.627 259.176C181.075 260.912 180.872 262.741 181.029 264.556C181.186 266.372 181.701 268.138 182.544 269.753C183.387 271.369 184.541 272.801 185.94 273.969V273.969ZM188.075 257.681C189.2 256.343 190.697 255.369 192.376 254.881C194.055 254.394 195.841 254.415 197.508 254.942C199.174 255.469 200.647 256.479 201.741 257.843C202.834 259.208 203.498 260.866 203.649 262.607C203.8 264.349 203.431 266.096 202.589 267.628C201.747 269.161 200.47 270.409 198.919 271.215C197.368 272.022 195.612 272.35 193.874 272.159C192.137 271.968 190.495 271.265 189.156 270.141C188.266 269.394 187.533 268.479 186.997 267.449C186.461 266.418 186.134 265.292 186.034 264.135C185.933 262.978 186.062 261.812 186.412 260.705C186.763 259.597 187.328 258.57 188.075 257.681V257.681Z" fill="white"/>
<path d="M189.547 284.776C188.665 285.824 188.113 287.111 187.962 288.473C187.811 289.835 188.068 291.211 188.699 292.428C189.331 293.644 190.309 294.645 191.51 295.306C192.711 295.966 194.08 296.255 195.446 296.136C196.811 296.018 198.11 295.497 199.18 294.64C200.249 293.783 201.04 292.628 201.452 291.321C201.865 290.014 201.88 288.614 201.497 287.298C201.114 285.983 200.349 284.81 199.299 283.929C198.604 283.344 197.799 282.901 196.933 282.626C196.066 282.352 195.153 282.251 194.247 282.33C193.342 282.408 192.46 282.665 191.654 283.084C190.847 283.504 190.131 284.079 189.547 284.776V284.776Z" fill="white"/>
<path d="M194.846 112.845C191.692 112.842 188.632 113.915 186.171 115.887C183.709 117.86 181.995 120.612 181.31 123.691C180.625 126.769 181.011 129.99 182.405 132.819C183.798 135.648 186.115 137.917 188.973 139.252C191.831 140.586 195.058 140.905 198.122 140.156C201.185 139.407 203.902 137.636 205.822 135.134C207.742 132.632 208.752 129.55 208.683 126.397C208.614 123.244 207.472 120.209 205.444 117.793C204.147 116.243 202.526 114.997 200.695 114.142C198.863 113.287 196.867 112.844 194.846 112.845V112.845ZM200.51 133.469C199.17 134.598 197.525 135.303 195.784 135.497C194.043 135.69 192.283 135.363 190.728 134.556C189.173 133.749 187.892 132.499 187.048 130.964C186.204 129.429 185.834 127.678 185.986 125.932C186.137 124.187 186.803 122.526 187.899 121.159C188.995 119.792 190.471 118.781 192.142 118.254C193.813 117.727 195.602 117.707 197.284 118.198C198.966 118.688 200.465 119.666 201.59 121.009C203.09 122.808 203.818 125.128 203.616 127.462C203.414 129.795 202.297 131.955 200.51 133.469V133.469Z" fill="white"/>
<path d="M199.299 106.127C200.349 105.246 201.114 104.074 201.497 102.758C201.88 101.442 201.865 100.042 201.452 98.7356C201.04 97.4288 200.249 96.2737 199.18 95.4165C198.11 94.5593 196.811 94.0385 195.446 93.92C194.08 93.8015 192.711 94.0907 191.51 94.7509C190.309 95.4111 189.331 96.4127 188.699 97.6289C188.068 98.8451 187.811 100.221 187.962 101.583C188.113 102.945 188.665 104.232 189.547 105.281C190.131 105.978 190.847 106.552 191.654 106.972C192.46 107.392 193.342 107.648 194.247 107.727C195.153 107.806 196.066 107.705 196.933 107.43C197.799 107.156 198.604 106.713 199.299 106.127V106.127Z" fill="white"/>
</g>
</svg>
